# Blender v2.79 (sub 0) OBJ File: ''
# www.blender.org
mtllib Platform.mtl
o Plane.001
v -5.714286 -0.000001 4.285714
v 4.285714 -0.000001 4.285714
v 4.285714 0.000001 -5.714286
v -5.714286 0.000001 -5.714286
v 4.285714 9.999999 4.285716
v 4.285714 10.000001 -5.714284
v -5.714286 9.999999 4.285716
v -5.714286 -1.000001 4.285714
v -5.714286 -0.999999 -5.714286
v 4.285714 -0.999999 -5.714286
v 4.285714 -1.000001 4.285714
vt 0.000100 0.500000
vt 0.500000 0.500000
vt 0.500000 0.999900
vt 0.000100 0.999900
vt 0.999900 0.500000
vt 0.500000 0.000100
vt 0.999900 0.000100
vt 0.000100 0.000100
vt 0.555856 0.558956
vt 0.555856 0.955709
vt 0.952609 0.955709
vt 0.952609 0.558956
vt 0.992284 0.558956
vt 0.992284 0.955709
vt 0.516181 0.955709
vt 0.516180 0.558956
vt 0.952609 0.995384
vt 0.555856 0.995384
vt 0.555856 0.519281
vt 0.952609 0.519281
vn 0.0000 1.0000 0.0000
vn -1.0000 0.0000 0.0000
vn 0.0000 0.0000 -1.0000
vn 0.0000 -1.0000 -0.0000
vn 1.0000 0.0000 0.0000
vn 0.0000 0.0000 1.0000
usemtl None
s off
f 1/1/1 2/2/1 3/3/1 4/4/1
f 3/5/2 2/2/2 5/6/2 6/7/2
f 2/2/3 1/1/3 7/8/3 5/6/3
f 8/9/4 9/10/4 10/11/4 11/12/4
f 2/13/5 11/12/5 10/11/5 3/14/5
f 4/15/2 9/10/2 8/9/2 1/16/2
f 3/17/3 10/11/3 9/10/3 4/18/3
f 1/19/6 8/9/6 11/12/6 2/20/6
