# Blender v2.79 (sub 0) OBJ File: 'Hard Surface.blend'
# www.blender.org
mtllib Platform.mtl
o Plane.001
v -5.714286 0.000000 4.285714
v 4.285714 0.000000 4.285714
v -5.714286 0.000000 -5.714286
v 4.285714 0.000000 -5.714286
v -5.714286 10.000000 4.285714
v 4.285714 10.000000 4.285714
v 4.285714 10.000000 -5.714286
v -5.714286 0.000000 4.285714
v 4.285714 0.000000 4.285714
v -5.714286 0.000000 -5.714286
v 4.285714 0.000000 -5.714286
v -5.714286 -1.000000 -5.714286
v -5.714286 -1.000000 4.285714
v 4.285714 -1.000000 4.285714
v 4.285714 -1.000000 -5.714286
vt 0.000100 0.500000
vt 0.500000 0.500000
vt 0.500000 0.999900
vt 0.000100 0.999900
vt 0.999900 0.500000
vt 0.500000 0.000100
vt 0.999900 0.000100
vt 0.000100 0.000100
vt 0.555856 0.558956
vt 0.555856 0.955709
vt 0.952609 0.955709
vt 0.952609 0.558956
vt 0.992284 0.558956
vt 0.992284 0.955709
vt 0.516181 0.955709
vt 0.516180 0.558956
vt 0.952609 0.995384
vt 0.555856 0.995384
vt 0.555856 0.519281
vt 0.952609 0.519281
vn 0.0000 1.0000 0.0000
vn -1.0000 0.0000 0.0000
vn 0.0000 0.0000 -1.0000
vn 0.0000 -1.0000 0.0000
vn 1.0000 0.0000 0.0000
vn 0.0000 0.0000 1.0000
usemtl None
s off
f 1/1/1 2/2/1 4/3/1 3/4/1
f 4/5/2 2/2/2 6/6/2 7/7/2
f 2/2/3 1/1/3 5/8/3 6/6/3
f 13/9/4 12/10/4 15/11/4 14/12/4
f 9/13/5 14/12/5 15/11/5 11/14/5
f 10/15/2 12/10/2 13/9/2 8/16/2
f 11/17/3 15/11/3 12/10/3 10/18/3
f 8/19/6 13/9/6 14/12/6 9/20/6
